# xmcd CD database file
#
# Track frame offsets:
#	150
#	19660
#	41464
#	61477
#	80760
#	99010
#	127665
#	148152
#	165820
#	182430
#	201087
#	226002
#
# Disc length: 3212 seconds
#
# Revision: 1
# Processed by: cddbd v1.5.1PL0 Copyright (c) Steve Scherf et al.
# Submitted via: CDex 1.51
#
DISCID=860c8a0c
DTITLE=Storyville Stompers - ...feel so good
DYEAR=1997
DGENRE=Jazz
TTITLE0=Whoopin' Blues
TTITLE1=Feel So Good
TTITLE2=Tiger Rag
TTITLE3=Panama
TTITLE4=South Rampart Street Parade
TTITLE5=Lonesome Road
TTITLE6=Bie Mir Bist Du Schon
TTITLE7=Mama Inez
TTITLE8=Just a Little While to Stay Here
TTITLE9=Cielito Lindo
TTITLE10=In the Sweet Bye and Bye
TTITLE11=Bogalusa Strut
EXTD=YEAR: 1997
EXTT0=
EXTT1=
EXTT2=
EXTT3=
EXTT4=
EXTT5=
EXTT6=
EXTT7=
EXTT8=
EXTT9=
EXTT10=
EXTT11=
PLAYORDER=
